<?xml version="1.0" encoding="utf-8"?>
<!-- Generator: Adobe Illustrator 24.1.2, SVG Export Plug-In . SVG Version: 6.00 Build 0)  -->
<svg version="1.1" id="Слой_1" xmlns="http://www.w3.org/2000/svg" xmlns:xlink="http://www.w3.org/1999/xlink" x="0px" y="0px"
	 viewBox="0 0 595.28 841.89" style="enable-background:new 0 0 595.28 841.89;" xml:space="preserve">
<style type="text/css">
	.st0{fill:#315355;}
</style>
<g>
	<path class="st0" d="M382.46,375.33l17.54-36.98c0,0,4.83,51.93,6.96,75.3c1.53,16.76,3.09,33.52,4.53,50.29
		c0.62,7.18-1.63,11.29-7,13.04c-1.62,0.53-3.33,0.68-5.03,0.68h-1.43v1.91h55.33v-1.91h-0.71c-1.93,0-3.87-0.11-5.78-0.41
		c-10.1-1.61-14.75-6.63-16.22-17.76c-5.27-39.74-10.35-79.51-15.51-119.27c-1.85-14.23-3.69-28.47-5.73-44.16
		c-1.08,2-33.44,72.5-33.44,72.5L382.46,375.33z"/>
	<path class="st0" d="M219.48,411.71c14.91,1.7,24.89,9.78,28.09,22.76c0.03,0.14,0.16,0.9,0.26,1.51c0.12,0.68,0.21,1.37,0.28,2.05
		c1.34,11.95,4.75,22.16,11.32,33.4c25.99,44.42,91.74,46.95,119.69,4.31c13.13-20.04,14.94-42.42,11.94-65.55
		c-2.79-21.47-13.48-37.8-31.89-49.13c-10.95-6.74-22.01-13.32-32.82-20.26c-13.71-8.81-20.03-24.15-16.52-39.15
		c1.76-7.52,5.78-13.88,11.5-18.54c5.98-4.87,14.06-6.62,21.31-3.98c1.48,0.54,2.97,1.26,4.44,2.2c7.33,4.68,16.06,6.35,26.7,5.09
		c1.31-0.16,2.25-0.55,2.58-1.09c0.31-0.52,0.24-1.5-0.2-2.7c-1.35-3.64-3.46-6.7-6.16-9.01c-1.81-1.55-3.88-2.76-6.17-3.58
		c-11.68-4.21-24.25-4.76-37.43-1.74c-0.03-0.01-1.1,0.31-1.09,0.33c-15.29,5.35-26.8,17.31-31.43,33.15
		c-5.54,18.96-0.54,45.16,22.55,58.26c11.66,6.62,23.05,13.84,33.95,21.63c22.37,15.98,34.01,36.8,28.77,65.37
		c-4.3,23.44-19.93,41.22-42.5,46.58c-21.61,5.13-45.71-4.21-59.11-22.57c-4.96-6.8-8.68-14-11.23-21.54
		c-0.17-0.48-0.35-0.95-0.52-1.43c-1.28-3.51-1.86-7.22-2.84-10.76c-0.94-3.57-2.13-7.07-3.71-10.39c-0.79-1.66-1.68-3.28-2.63-4.86
		c-0.95-1.59-1.93-3.15-3.07-4.59c-1.67-2.14-5.51-5.96-5.51-5.94c-4.2-3.88-9.31-7.13-15.28-9.63c-1.13-0.47-2.29-0.89-3.46-1.25
		c-0.11-0.03-0.22-0.07-0.34-0.11c-0.08-0.02-0.16-0.04-0.23-0.06c-2.48-0.7-5.02-1.18-7.59-1.47
		c-17.27-1.73-36.37,6.61-45.83,21.32c-3.67,5.72-7.18,11.75-10.57,17.58c-2.21,3.8-4.41,7.6-6.69,11.36
		c-2.17,3.59-4.53,6.52-7.07,8.78c-5.32,4.74-11.48,6.6-18.64,5.66c-11.52-1.53-19.49-9.4-22.46-22.16
		c-1.37-5.92-2.43-12.26-3.18-19.16c-0.11,1.36-0.19,2.7-0.2,4.03c-0.11,13.9,1.48,28.04,13.86,37.24c5.8,4.31,13.32,6,21.17,4.77
		c9.95-1.56,19.26-7.48,25.53-16.26c2.26-3.16,4.42-6.58,6.51-9.87c3.01-4.76,6.12-9.68,9.75-14.22
		C193.11,415.79,205.64,410.13,219.48,411.71z"/>
	<path class="st0" d="M257.58,415.33c1.73,2.39,3.25,4.91,4.59,7.53c-0.01-1.25-0.01-2.5,0.04-3.76
		c0.71-18.87,3.18-36.39,4.97-55.22c0.65-6.86,2.15-19.69,2.93-26.53c0.43-0.07,46.27,97.88,68.68,144.85
		c1.07-2.76,29.75-76.14,29.75-76.14l-6.24-7.48c0,0-17.28,38.29-23.5,51.96c-22.4-48.41-73.17-155.49-73.17-155.49
		s-16.98,110.28-17.02,110.54C251.96,408.5,254.99,411.75,257.58,415.33z"/>
	<path class="st0" d="M167.03,530.96c-1.56,0-2.9,0.58-3.98,1.73c0.01-0.09,0.01-0.18,0.02-0.29c0.04-0.51,0.06-0.9,0.06-1.2v-8.01
		h-2.42v19.35h2.31v-1.4c1.05,1.16,2.4,1.74,4.03,1.74c1.62,0,2.99-0.57,4.06-1.7c1.07-1.12,1.62-2.53,1.62-4.19
		c0-1.76-0.54-3.22-1.59-4.34C170.08,531.53,168.7,530.96,167.03,530.96z M169.29,539.72c-0.67,0.74-1.52,1.09-2.61,1.09
		c-1.1,0-1.96-0.36-2.64-1.11c-0.67-0.74-1.02-1.73-1.02-2.94c0-1.09,0.35-1.96,1.05-2.66c0.71-0.7,1.57-1.05,2.62-1.05
		c1.05,0,1.89,0.35,2.57,1.07c0.68,0.72,1.02,1.63,1.02,2.73C170.29,538.02,169.95,538.99,169.29,539.72z"/>
	<polygon class="st0" points="180.58,539.27 176.64,531.26 174.03,531.26 179.37,541.83 176.04,548.99 178.6,548.99 186.83,531.26
		184.26,531.26 	"/>
	<path class="st0" d="M203.7,531.45c-1.34-0.51-2.28-0.98-2.78-1.41c-0.47-0.41-0.7-0.89-0.7-1.49c0-0.7,0.29-1.29,0.89-1.78
		c0.6-0.5,1.35-0.75,2.22-0.75c1.3,0,2.29,0.55,3.01,1.69l0.13,0.2l2.02-1.17l-0.13-0.22c-1.14-1.86-2.82-2.8-4.99-2.8
		c-1.59,0-2.95,0.46-4.02,1.36c-1.09,0.91-1.64,2.09-1.64,3.49c0,1.18,0.44,2.18,1.3,2.97c0.74,0.68,2.02,1.38,3.8,2.09
		c1.38,0.55,2.36,1.08,2.92,1.59c0.58,0.54,0.86,1.17,0.86,1.92c0,0.96-0.34,1.76-1.05,2.43c-0.71,0.68-1.55,1.01-2.57,1.01
		c-1.01,0-1.87-0.29-2.55-0.86c-0.68-0.58-1.09-1.32-1.23-2.27l-0.04-0.27l-2.41,0.57l0.06,0.24c0.36,1.53,1.11,2.75,2.24,3.63
		c1.08,0.83,2.36,1.25,3.81,1.25c1.74,0,3.24-0.55,4.44-1.64c1.21-1.09,1.82-2.46,1.82-4.05c0-1.37-0.41-2.51-1.23-3.37
		C207.05,532.99,205.65,532.19,203.7,531.45z"/>
	<polygon class="st0" points="229.69,537.25 223.62,523.33 217.56,537.26 212.58,524.06 209.96,524.06 217.39,543.36 223.62,529.17
		229.85,543.36 237.3,524.06 234.67,524.06 	"/>
	<polygon class="st0" points="239.56,542.55 249.92,542.55 249.92,540.28 242.08,540.28 242.08,533.56 249.7,533.56 249.7,531.29
		242.08,531.29 242.08,526.33 249.95,526.33 249.95,524.06 239.56,524.06 	"/>
	<polygon class="st0" points="256.83,542.55 259.37,542.55 259.37,526.33 264.15,526.33 264.15,524.06 252.05,524.06 252.05,526.33
		256.83,526.33 	"/>
	<polygon class="st0" points="274.9,540.28 269.31,540.28 269.31,524.06 266.79,524.06 266.79,542.55 274.9,542.55 	"/>
	<path class="st0" d="M293.77,542.55l-9.1-19.16l-9.09,19.16h2.7l2.26-4.94h8.27l2.28,4.94H293.77z M281.56,535.4l3.12-6.81
		l3.14,6.81H281.56z"/>
	<polygon class="st0" points="295.94,523.38 295.94,542.55 298.39,542.55 298.39,529.27 312.54,543.24 312.54,524.06 310.1,524.06
		310.1,537.35 	"/>
	<path class="st0" d="M330.22,542.55h2.69l-9.1-19.16l-9.09,19.16h2.7l2.26-4.94h8.27L330.22,542.55z M320.69,535.4l3.12-6.81
		l3.14,6.81H320.69z"/>
	<polygon class="st0" points="347.07,530.4 353.09,543.23 359.08,530.42 361.39,542.55 363.98,542.55 360.07,523.18 353.08,537.77
		346.09,523.19 342.18,542.55 344.76,542.55 	"/>
	<path class="st0" d="M375.81,523.73c-2.76,0-5.16,0.95-7.15,2.83c-2,1.88-3.01,4.15-3.01,6.75c0,2.6,1.01,4.87,3.01,6.75
		c1.99,1.88,4.4,2.83,7.15,2.83c2.76,0,5.16-0.95,7.14-2.83c1.99-1.88,2.99-4.15,2.99-6.75c0-2.6-1.01-4.87-2.99-6.75
		C380.97,524.68,378.56,523.73,375.81,523.73z M381.18,538.48c-1.45,1.4-3.25,2.11-5.37,2.11c-2.13,0-3.95-0.71-5.39-2.11
		c-1.44-1.4-2.18-3.14-2.18-5.18c0-2.04,0.73-3.78,2.18-5.18c1.45-1.4,3.26-2.11,5.39-2.11c2.12,0,3.92,0.71,5.37,2.11
		c1.44,1.4,2.18,3.14,2.18,5.17C383.36,535.34,382.62,537.08,381.18,538.48z"/>
	<polygon class="st0" points="387.42,524.06 387.42,526.33 396.43,526.33 386.39,542.55 400.5,542.55 400.5,540.28 390.64,540.28
		400.65,524.06 	"/>
	<polygon class="st0" points="415.11,531.44 405.82,531.44 405.82,524.06 403.31,524.06 403.31,542.55 405.82,542.55 405.82,533.72
		415.11,533.72 415.11,542.55 417.62,542.55 417.62,524.06 415.11,524.06 	"/>
	<polygon class="st0" points="421.84,542.55 432.2,542.55 432.2,540.28 424.36,540.28 424.36,533.56 431.98,533.56 431.98,531.29
		424.36,531.29 424.36,526.33 432.23,526.33 432.23,524.06 421.84,524.06 	"/>
	<rect x="435.99" y="524.06" class="st0" width="2.54" height="18.49"/>
	<polygon class="st0" points="456.72,524.06 453.35,524.06 445.38,531.81 445.38,524.06 442.86,524.06 442.86,542.55 445.38,542.55
		445.38,533.97 453.54,542.55 457,542.55 447.59,532.86 	"/>
	<path class="st0" d="M473.56,526.56c-1.98-1.88-4.39-2.83-7.14-2.83c-2.76,0-5.16,0.95-7.15,2.83c-1.99,1.88-3.01,4.15-3.01,6.75
		c0,2.6,1.01,4.87,3.01,6.75c1.99,1.88,4.4,2.83,7.15,2.83c2.75,0,5.16-0.95,7.14-2.83c1.99-1.88,2.99-4.15,2.99-6.75
		C476.56,530.71,475.55,528.44,473.56,526.56z M471.79,538.48c-1.45,1.4-3.25,2.11-5.37,2.11c-2.13,0-3.95-0.71-5.4-2.11
		c-1.44-1.4-2.18-3.14-2.18-5.18c0-2.04,0.73-3.78,2.18-5.18c1.45-1.4,3.26-2.11,5.4-2.11c2.11,0,3.92,0.71,5.37,2.11
		c1.44,1.4,2.18,3.14,2.18,5.17C473.97,535.34,473.24,537.08,471.79,538.48z"/>
	<path class="st0" d="M258.48,561.18c-1.12,1.08-1.68,2.39-1.68,3.95c0,1.59,0.56,2.92,1.67,3.99c1.11,1.07,2.52,1.61,4.23,1.61
		c1.27,0,2.4-0.31,3.38-0.91v-1.96c-1.02,0.83-2.2,1.25-3.55,1.25c-1.09,0-2-0.39-2.75-1.15c-0.74-0.77-1.11-1.71-1.11-2.83
		c0-1.08,0.39-2.01,1.16-2.79c0.78-0.78,1.71-1.17,2.8-1.17c1.46,0,2.61,0.41,3.45,1.24v-1.96c-0.94-0.59-2.1-0.89-3.48-0.89
		C260.97,559.56,259.6,560.1,258.48,561.18z"/>
	<path class="st0" d="M273.54,559.56c-1.66,0-3.06,0.54-4.22,1.63c-1.15,1.08-1.73,2.4-1.73,3.94c0,1.59,0.57,2.91,1.72,3.99
		c1.15,1.07,2.56,1.61,4.23,1.61c1.66,0,3.07-0.54,4.23-1.62c1.16-1.08,1.75-2.4,1.75-3.98c0-1.54-0.58-2.85-1.75-3.94
		C276.61,560.1,275.2,559.56,273.54,559.56z M276.43,567.93c-0.79,0.76-1.76,1.15-2.89,1.15c-1.14,0-2.11-0.38-2.89-1.14
		c-0.78-0.76-1.17-1.69-1.17-2.8c0-1.08,0.39-2.01,1.18-2.77c0.78-0.76,1.74-1.15,2.88-1.15c1.13,0,2.09,0.38,2.89,1.15
		c0.79,0.76,1.19,1.69,1.19,2.77C277.62,566.23,277.22,567.16,276.43,567.93z"/>
	<path class="st0" d="M285.37,564.08c-0.86-0.32-1.43-0.6-1.73-0.85c-0.27-0.23-0.41-0.51-0.41-0.85c0-0.32,0.15-0.61,0.46-0.86
		c0.3-0.26,0.66-0.39,1.07-0.39c0.66,0,1.2,0.34,1.64,1.02l1.28-0.86c-0.68-1.15-1.66-1.72-2.93-1.72c-0.86,0-1.62,0.28-2.27,0.83
		c-0.66,0.58-1,1.27-1,2.08c0,1.24,0.88,2.2,2.65,2.89c1.05,0.41,1.72,0.73,2.03,0.97c0.34,0.26,0.5,0.62,0.5,1.08
		c0,0.51-0.19,0.93-0.56,1.27c-0.38,0.33-0.84,0.5-1.4,0.5c-1.06,0-1.88-0.56-2.44-1.68l-1.43,0.95c0.87,1.51,2.16,2.27,3.86,2.27
		c1.06,0,1.95-0.33,2.69-1c0.74-0.66,1.11-1.47,1.11-2.41c0-0.77-0.26-1.41-0.77-1.92C287.26,564.93,286.47,564.49,285.37,564.08z"
		/>
	<path class="st0" d="M302.02,559.56c-0.73,0-1.41,0.2-2.04,0.61c-0.54,0.35-0.95,0.77-1.24,1.28c-0.23-0.53-0.59-0.97-1.1-1.31
		c-0.56-0.39-1.2-0.58-1.91-0.58c-1.22,0-2.25,0.63-3.09,1.89v-1.59h-1.78v10.54h1.85v-5.45c0-1.22,0.24-2.16,0.71-2.83
		c0.47-0.66,1.11-0.99,1.92-0.99c1.34,0,2.02,0.96,2.02,2.89v6.38h1.84v-5.78c0-2.33,0.85-3.49,2.56-3.49
		c1.39,0,2.09,0.96,2.09,2.89v6.38h1.85v-6.52C305.68,561,304.46,559.56,302.02,559.56z"/>
	<path class="st0" d="M313.39,559.56c-1.54,0-2.84,0.54-3.92,1.63s-1.61,2.4-1.61,3.94c0,1.55,0.53,2.87,1.61,3.96
		c1.07,1.09,2.38,1.64,3.92,1.64c2.09,0,3.74-0.81,4.97-2.42l-1.43-0.91c-0.75,1.12-1.93,1.69-3.54,1.69c-0.98,0-1.84-0.34-2.56-1
		c-0.72-0.66-1.13-1.5-1.22-2.5h9.33v-0.44c0-1.54-0.54-2.85-1.62-3.94C316.24,560.1,314.93,559.56,313.39,559.56z M309.61,564.1
		c0.22-0.82,0.7-1.53,1.42-2.11c0.72-0.58,1.51-0.87,2.36-0.87c0.86,0,1.66,0.29,2.4,0.88c0.72,0.58,1.2,1.28,1.44,2.1H309.61z"/>
	<polygon class="st0" points="323.09,555.34 321.24,555.34 321.24,559.85 319.97,559.85 319.97,561.5 321.24,561.5 321.24,570.39
		323.09,570.39 323.09,561.5 324.83,561.5 324.83,559.85 323.09,559.85 	"/>
	<path class="st0" d="M331.42,559.56c-1.66,0-3.06,0.54-4.22,1.63c-1.15,1.08-1.73,2.4-1.73,3.94c0,1.59,0.57,2.91,1.72,3.99
		c1.15,1.07,2.56,1.61,4.23,1.61c1.66,0,3.07-0.54,4.23-1.62c1.16-1.08,1.75-2.4,1.75-3.98c0-1.54-0.58-2.85-1.75-3.94
		C334.48,560.1,333.07,559.56,331.42,559.56z M334.31,567.93c-0.79,0.76-1.76,1.15-2.89,1.15c-1.14,0-2.11-0.38-2.89-1.14
		c-0.78-0.76-1.17-1.69-1.17-2.8c0-1.08,0.39-2.01,1.18-2.77c0.78-0.76,1.74-1.15,2.88-1.15c1.13,0,2.09,0.38,2.89,1.15
		c0.79,0.76,1.19,1.69,1.19,2.77C335.49,566.23,335.1,567.16,334.31,567.93z"/>
	<rect x="339.62" y="551.98" class="st0" width="1.85" height="18.41"/>
	<path class="st0" d="M349.65,559.56c-1.66,0-3.06,0.54-4.22,1.63c-1.15,1.08-1.73,2.4-1.73,3.94c0,1.59,0.57,2.91,1.72,3.99
		c1.15,1.07,2.56,1.61,4.23,1.61c1.66,0,3.07-0.54,4.23-1.62c1.16-1.08,1.75-2.4,1.75-3.98c0-1.54-0.58-2.85-1.75-3.94
		C352.71,560.1,351.3,559.56,349.65,559.56z M352.54,567.93c-0.79,0.76-1.76,1.15-2.89,1.15c-1.14,0-2.11-0.38-2.89-1.14
		c-0.78-0.76-1.17-1.69-1.17-2.8c0-1.08,0.39-2.01,1.18-2.77c0.78-0.76,1.74-1.15,2.88-1.15c1.13,0,2.09,0.38,2.89,1.15
		c0.79,0.76,1.19,1.69,1.19,2.77C353.72,566.23,353.33,567.16,352.54,567.93z"/>
	<path class="st0" d="M367,561.72c-1.03-1.44-2.43-2.16-4.2-2.16c-1.55,0-2.82,0.53-3.82,1.58c-0.99,1.05-1.49,2.38-1.49,3.99
		c0,1.59,0.5,2.92,1.49,3.99c0.99,1.07,2.24,1.61,3.75,1.61c1.64,0,3.03-0.7,4.17-2.08v2.71c0,2.73-1.18,4.1-3.54,4.1
		c-1.14,0-2.05-0.29-2.72-0.87c-0.67-0.58-1.01-1.34-1.01-2.27h-1.85c0,1.37,0.52,2.5,1.57,3.39c1.02,0.88,2.31,1.32,3.86,1.32
		c3.68,0,5.52-1.99,5.52-5.97v-11.18H367V561.72z M365.87,567.97c-0.75,0.81-1.66,1.22-2.73,1.22c-1.14,0-2.06-0.37-2.74-1.12
		c-0.68-0.75-1.02-1.74-1.02-2.96c0-1.13,0.34-2.07,1.01-2.84c0.68-0.76,1.56-1.14,2.65-1.14c1.17,0,2.13,0.43,2.9,1.29
		c0.7,0.78,1.06,1.68,1.06,2.69C367,566.2,366.63,567.16,365.87,567.97z"/>
	<polygon class="st0" points="376.28,568 372.27,559.85 370.28,559.85 375.37,569.93 372.22,576.68 374.19,576.68 381.99,559.85
		380.03,559.85 	"/>
</g>
</svg>
